<svg width="68" height="19" viewBox="0 0 68 19" fill="none" xmlns="http://www.w3.org/2000/svg">
<rect width="68" height="19" rx="8" fill="#FCF6DC"/>
<path d="M9.862 14.07C9.64733 14.07 9.47467 14.0047 9.344 13.874C9.21333 13.7433 9.148 13.566 9.148 13.342V4.83C9.148 4.61533 9.20867 4.44733 9.33 4.326C9.46067 4.19533 9.638 4.13 9.862 4.13H13.236C14.2813 4.13 15.0933 4.38667 15.672 4.9C16.2507 5.41333 16.54 6.14133 16.54 7.084C16.54 8.01733 16.2507 8.74533 15.672 9.268C15.0933 9.79067 14.2813 10.052 13.236 10.052H10.59V13.342C10.59 13.566 10.5247 13.7433 10.394 13.874C10.2727 14.0047 10.0953 14.07 9.862 14.07ZM13.082 8.89C14.4633 8.89 15.154 8.288 15.154 7.084C15.154 5.88933 14.4633 5.292 13.082 5.292H10.59V8.89H13.082ZM21.5601 7.028C22.0081 7 22.2321 7.19133 22.2321 7.602C22.2321 7.80733 22.1808 7.96133 22.0781 8.064C21.9754 8.16667 21.7981 8.22733 21.5461 8.246L21.1261 8.288C20.5381 8.344 20.0994 8.54933 19.8101 8.904C19.5301 9.25867 19.3901 9.688 19.3901 10.192V13.398C19.3901 13.622 19.3248 13.79 19.1941 13.902C19.0634 14.014 18.8954 14.07 18.6901 14.07C18.4848 14.07 18.3121 14.014 18.1721 13.902C18.0414 13.79 17.9761 13.622 17.9761 13.398V7.7C17.9761 7.48533 18.0414 7.322 18.1721 7.21C18.3121 7.08867 18.4848 7.028 18.6901 7.028C18.8768 7.028 19.0308 7.08867 19.1521 7.21C19.2828 7.322 19.3481 7.48067 19.3481 7.686V8.358C19.5348 7.94733 19.8054 7.63467 20.1601 7.42C20.5148 7.20533 20.9161 7.07933 21.3641 7.042L21.5601 7.028ZM28.3143 12.278C28.445 12.278 28.5523 12.3293 28.6363 12.432C28.7203 12.5347 28.7623 12.6653 28.7623 12.824C28.7623 13.0947 28.5943 13.3233 28.2583 13.51C27.9317 13.6967 27.5723 13.8413 27.1803 13.944C26.7977 14.0467 26.429 14.098 26.0743 14.098C24.9917 14.098 24.1377 13.7853 23.5123 13.16C22.887 12.5253 22.5743 11.662 22.5743 10.57C22.5743 9.87 22.7097 9.24933 22.9803 8.708C23.2603 8.16667 23.6477 7.74667 24.1423 7.448C24.6463 7.14933 25.2157 7 25.8503 7C26.765 7 27.4883 7.294 28.0203 7.882C28.5523 8.47 28.8183 9.26333 28.8183 10.262C28.8183 10.6353 28.6503 10.822 28.3143 10.822H23.9883C24.0817 12.2687 24.777 12.992 26.0743 12.992C26.4197 12.992 26.7183 12.9453 26.9703 12.852C27.2223 12.7587 27.4883 12.6373 27.7683 12.488C27.7963 12.4693 27.871 12.432 27.9923 12.376C28.123 12.3107 28.2303 12.278 28.3143 12.278ZM25.8783 8.036C25.337 8.036 24.903 8.20867 24.5763 8.554C24.2497 8.89933 24.0537 9.38467 23.9883 10.01H27.6003C27.5723 9.37533 27.409 8.89 27.1103 8.554C26.821 8.20867 26.4103 8.036 25.8783 8.036ZM35.1388 7.448C35.1948 7.308 35.2741 7.20533 35.3768 7.14C35.4888 7.07467 35.6054 7.042 35.7268 7.042C35.9041 7.042 36.0581 7.10267 36.1888 7.224C36.3288 7.34533 36.3988 7.49 36.3988 7.658C36.3988 7.75133 36.3801 7.84 36.3428 7.924L33.6688 13.594C33.6034 13.7433 33.5008 13.86 33.3608 13.944C33.2301 14.0187 33.0901 14.056 32.9408 14.056C32.7914 14.056 32.6468 14.0187 32.5068 13.944C32.3761 13.86 32.2781 13.7433 32.2128 13.594L29.5388 7.924C29.5014 7.84933 29.4828 7.76067 29.4828 7.658C29.4828 7.49 29.5574 7.34533 29.7068 7.224C29.8561 7.10267 30.0241 7.042 30.2108 7.042C30.4814 7.042 30.6821 7.17267 30.8128 7.434L32.9828 12.25L35.1388 7.448ZM38.4733 14.07C38.268 14.07 38.0953 14.014 37.9553 13.902C37.8246 13.79 37.7593 13.622 37.7593 13.398V7.714C37.7593 7.49 37.8246 7.322 37.9553 7.21C38.0953 7.08867 38.268 7.028 38.4733 7.028C38.6786 7.028 38.8466 7.08867 38.9773 7.21C39.108 7.322 39.1733 7.49 39.1733 7.714V13.398C39.1733 13.622 39.108 13.79 38.9773 13.902C38.8466 14.014 38.6786 14.07 38.4733 14.07ZM38.4733 5.656C38.2026 5.656 37.988 5.58133 37.8293 5.432C37.6706 5.28267 37.5913 5.08667 37.5913 4.844C37.5913 4.60133 37.6706 4.41 37.8293 4.27C37.988 4.12067 38.2026 4.046 38.4733 4.046C38.7346 4.046 38.9446 4.12067 39.1033 4.27C39.2713 4.41 39.3553 4.60133 39.3553 4.844C39.3553 5.08667 39.276 5.28267 39.1173 5.432C38.9586 5.58133 38.744 5.656 38.4733 5.656ZM43.5299 14.098C42.5779 14.098 41.7986 13.902 41.1919 13.51C41.0239 13.4073 40.9026 13.3 40.8279 13.188C40.7626 13.076 40.7299 12.95 40.7299 12.81C40.7299 12.6607 40.7719 12.5347 40.8559 12.432C40.9399 12.3293 41.0473 12.278 41.1779 12.278C41.2993 12.278 41.4906 12.3527 41.7519 12.502C42.0319 12.6513 42.3026 12.7727 42.5639 12.866C42.8346 12.9593 43.1706 13.006 43.5719 13.006C44.0199 13.006 44.3699 12.9267 44.6219 12.768C44.8739 12.6093 44.9999 12.3853 44.9999 12.096C44.9999 11.9093 44.9486 11.76 44.8459 11.648C44.7526 11.536 44.5846 11.438 44.3419 11.354C44.0993 11.2607 43.7399 11.1627 43.2639 11.06C42.4426 10.8827 41.8499 10.6447 41.4859 10.346C41.1313 10.038 40.9539 9.62267 40.9539 9.1C40.9539 8.69867 41.0706 8.33933 41.3039 8.022C41.5373 7.69533 41.8593 7.44333 42.2699 7.266C42.6806 7.08867 43.1473 7 43.6699 7C44.0433 7 44.4073 7.05133 44.7619 7.154C45.1166 7.24733 45.4293 7.38733 45.6999 7.574C46.0079 7.77933 46.1619 8.01733 46.1619 8.288C46.1619 8.43733 46.1153 8.56333 46.0219 8.666C45.9379 8.76867 45.8353 8.82 45.7139 8.82C45.6299 8.82 45.5459 8.80133 45.4619 8.764C45.3779 8.72667 45.2659 8.666 45.1259 8.582C44.8739 8.43267 44.6359 8.316 44.4119 8.232C44.1973 8.148 43.9266 8.106 43.5999 8.106C43.2079 8.106 42.8906 8.19 42.6479 8.358C42.4146 8.526 42.2979 8.75467 42.2979 9.044C42.2979 9.30533 42.4053 9.51067 42.6199 9.66C42.8439 9.8 43.2593 9.93533 43.8659 10.066C44.4913 10.1967 44.9813 10.346 45.3359 10.514C45.6906 10.682 45.9426 10.892 46.0919 11.144C46.2506 11.3867 46.3299 11.6993 46.3299 12.082C46.3299 12.6887 46.0733 13.1787 45.5599 13.552C45.0559 13.916 44.3793 14.098 43.5299 14.098ZM51.1815 12.992C51.3868 13.0107 51.5315 13.0667 51.6155 13.16C51.7088 13.244 51.7555 13.3653 51.7555 13.524C51.7555 13.7107 51.6808 13.8553 51.5315 13.958C51.3915 14.0513 51.1815 14.0887 50.9015 14.07L50.5235 14.042C49.7675 13.986 49.2028 13.7573 48.8295 13.356C48.4561 12.9453 48.2695 12.3433 48.2695 11.55V8.26H47.4295C47.0188 8.26 46.8135 8.078 46.8135 7.714C46.8135 7.546 46.8648 7.41533 46.9675 7.322C47.0795 7.21933 47.2335 7.168 47.4295 7.168H48.2695V5.726C48.2695 5.51133 48.3301 5.34333 48.4515 5.222C48.5821 5.10067 48.7548 5.04 48.9695 5.04C49.1841 5.04 49.3568 5.10067 49.4875 5.222C49.6181 5.34333 49.6835 5.51133 49.6835 5.726V7.168H51.0695C51.2655 7.168 51.4148 7.21933 51.5175 7.322C51.6295 7.41533 51.6855 7.546 51.6855 7.714C51.6855 7.89133 51.6295 8.02667 51.5175 8.12C51.4148 8.21333 51.2655 8.26 51.0695 8.26H49.6835V11.648C49.6835 12.0867 49.7721 12.4087 49.9495 12.614C50.1361 12.8193 50.4161 12.936 50.7895 12.964L51.1815 12.992ZM55.641 7C56.5463 7 57.2183 7.22867 57.657 7.686C58.105 8.14333 58.329 8.83867 58.329 9.772V13.398C58.329 13.6127 58.2683 13.7807 58.147 13.902C58.0257 14.014 57.8577 14.07 57.643 14.07C57.4377 14.07 57.2743 14.0093 57.153 13.888C57.0317 13.7667 56.971 13.6033 56.971 13.398V12.88C56.7937 13.272 56.5277 13.5753 56.173 13.79C55.8277 13.9953 55.4217 14.098 54.955 14.098C54.507 14.098 54.0963 14.0093 53.723 13.832C53.359 13.6453 53.0697 13.3933 52.855 13.076C52.6403 12.7587 52.533 12.3993 52.533 11.998C52.5237 11.494 52.6497 11.102 52.911 10.822C53.1723 10.5327 53.597 10.3273 54.185 10.206C54.773 10.0753 55.5897 10.01 56.635 10.01H56.957V9.604C56.957 9.08133 56.8497 8.70333 56.635 8.47C56.4203 8.23667 56.075 8.12 55.599 8.12C55.2723 8.12 54.9643 8.162 54.675 8.246C54.3857 8.33 54.0683 8.45133 53.723 8.61C53.471 8.75 53.2937 8.82 53.191 8.82C53.051 8.82 52.9343 8.76867 52.841 8.666C52.757 8.56333 52.715 8.43267 52.715 8.274C52.715 8.134 52.7523 8.01267 52.827 7.91C52.911 7.798 53.0417 7.69067 53.219 7.588C53.5457 7.41067 53.9283 7.27067 54.367 7.168C54.8057 7.056 55.2303 7 55.641 7ZM55.207 13.048C55.7203 13.048 56.1403 12.8753 56.467 12.53C56.7937 12.1753 56.957 11.7227 56.957 11.172V10.808H56.705C55.977 10.808 55.417 10.8407 55.025 10.906C54.633 10.9713 54.353 11.0833 54.185 11.242C54.017 11.3913 53.933 11.6107 53.933 11.9C53.933 12.236 54.0543 12.5113 54.297 12.726C54.5397 12.9407 54.843 13.048 55.207 13.048Z" fill="#C5A605"/>
</svg>
