<svg width="67" height="19" viewBox="0 0 67 19" fill="none" xmlns="http://www.w3.org/2000/svg">
<rect width="67" height="19" rx="8" fill="#FFEFEF"/>
<path d="M16.358 4.438C16.4793 4.17667 16.68 4.046 16.96 4.046C17.1467 4.046 17.3147 4.11133 17.464 4.242C17.6133 4.36333 17.688 4.51267 17.688 4.69C17.688 4.75533 17.6647 4.844 17.618 4.956L13.67 13.608C13.6047 13.7573 13.502 13.874 13.362 13.958C13.222 14.042 13.0727 14.084 12.914 14.084C12.7553 14.084 12.6013 14.042 12.452 13.958C12.312 13.874 12.2093 13.7573 12.144 13.608L8.21 4.956C8.16333 4.844 8.14 4.75533 8.14 4.69C8.14 4.50333 8.21467 4.34933 8.364 4.228C8.52267 4.10667 8.69533 4.046 8.882 4.046C9.17133 4.046 9.37667 4.17667 9.498 4.438L12.928 12.124L16.358 4.438ZM23.3514 12.278C23.4821 12.278 23.5894 12.3293 23.6734 12.432C23.7574 12.5347 23.7994 12.6653 23.7994 12.824C23.7994 13.0947 23.6314 13.3233 23.2954 13.51C22.9688 13.6967 22.6094 13.8413 22.2174 13.944C21.8348 14.0467 21.4661 14.098 21.1114 14.098C20.0288 14.098 19.1748 13.7853 18.5494 13.16C17.9241 12.5253 17.6114 11.662 17.6114 10.57C17.6114 9.87 17.7468 9.24933 18.0174 8.708C18.2974 8.16667 18.6848 7.74667 19.1794 7.448C19.6834 7.14933 20.2528 7 20.8874 7C21.8021 7 22.5254 7.294 23.0574 7.882C23.5894 8.47 23.8554 9.26333 23.8554 10.262C23.8554 10.6353 23.6874 10.822 23.3514 10.822H19.0254C19.1188 12.2687 19.8141 12.992 21.1114 12.992C21.4568 12.992 21.7554 12.9453 22.0074 12.852C22.2594 12.7587 22.5254 12.6373 22.8054 12.488C22.8334 12.4693 22.9081 12.432 23.0294 12.376C23.1601 12.3107 23.2674 12.278 23.3514 12.278ZM20.9154 8.036C20.3741 8.036 19.9401 8.20867 19.6134 8.554C19.2868 8.89933 19.0908 9.38467 19.0254 10.01H22.6374C22.6094 9.37533 22.4461 8.89 22.1474 8.554C21.8581 8.20867 21.4474 8.036 20.9154 8.036ZM29.0956 7C30.7289 7 31.5456 7.91933 31.5456 9.758V13.398C31.5456 13.6127 31.4803 13.7807 31.3496 13.902C31.2283 14.014 31.0556 14.07 30.8316 14.07C30.6169 14.07 30.4443 14.0093 30.3136 13.888C30.1923 13.7667 30.1316 13.6033 30.1316 13.398V9.828C30.1316 9.24933 30.0149 8.82467 29.7816 8.554C29.5576 8.28333 29.2029 8.148 28.7176 8.148C28.1483 8.148 27.6909 8.32533 27.3456 8.68C27.0003 9.03467 26.8276 9.51067 26.8276 10.108V13.398C26.8276 13.6033 26.7623 13.7667 26.6316 13.888C26.5103 14.0093 26.3423 14.07 26.1276 14.07C25.9129 14.07 25.7403 14.0093 25.6096 13.888C25.4789 13.7667 25.4136 13.6033 25.4136 13.398V7.7C25.4136 7.504 25.4789 7.34533 25.6096 7.224C25.7496 7.09333 25.9223 7.028 26.1276 7.028C26.3329 7.028 26.4963 7.08867 26.6176 7.21C26.7389 7.33133 26.7996 7.49 26.7996 7.686V8.26C27.0236 7.84933 27.3363 7.53667 27.7376 7.322C28.1389 7.10733 28.5916 7 29.0956 7ZM36.406 14.098C35.7433 14.098 35.16 13.9533 34.656 13.664C34.1613 13.3747 33.774 12.964 33.494 12.432C33.2233 11.9 33.088 11.284 33.088 10.584C33.088 9.87467 33.228 9.24933 33.508 8.708C33.7973 8.16667 34.1987 7.74667 34.712 7.448C35.2253 7.14933 35.8133 7 36.476 7C36.8307 7 37.1853 7.05133 37.54 7.154C37.904 7.25667 38.226 7.39667 38.506 7.574C38.8047 7.77933 38.954 8.01733 38.954 8.288C38.954 8.44667 38.912 8.582 38.828 8.694C38.744 8.79667 38.6367 8.848 38.506 8.848C38.422 8.848 38.338 8.82933 38.254 8.792C38.17 8.74533 38.0627 8.68 37.932 8.596C37.6987 8.44667 37.4793 8.33467 37.274 8.26C37.078 8.176 36.84 8.134 36.56 8.134C35.9253 8.134 35.4307 8.34867 35.076 8.778C34.7307 9.20733 34.558 9.80467 34.558 10.57C34.558 11.3353 34.7307 11.928 35.076 12.348C35.4213 12.7587 35.9113 12.964 36.546 12.964C36.826 12.964 37.0733 12.922 37.288 12.838C37.5027 12.754 37.722 12.642 37.946 12.502C38.0487 12.4367 38.1513 12.3807 38.254 12.334C38.3567 12.2873 38.45 12.264 38.534 12.264C38.6647 12.264 38.772 12.32 38.856 12.432C38.94 12.5347 38.982 12.6653 38.982 12.824C38.982 12.9547 38.9447 13.076 38.87 13.188C38.8047 13.2907 38.688 13.398 38.52 13.51C38.24 13.6967 37.9133 13.8413 37.54 13.944C37.1667 14.0467 36.7887 14.098 36.406 14.098ZM40.9616 14.07C40.7562 14.07 40.5836 14.014 40.4436 13.902C40.3129 13.79 40.2476 13.622 40.2476 13.398V7.714C40.2476 7.49 40.3129 7.322 40.4436 7.21C40.5836 7.08867 40.7562 7.028 40.9616 7.028C41.1669 7.028 41.3349 7.08867 41.4656 7.21C41.5962 7.322 41.6616 7.49 41.6616 7.714V13.398C41.6616 13.622 41.5962 13.79 41.4656 13.902C41.3349 14.014 41.1669 14.07 40.9616 14.07ZM40.9616 5.656C40.6909 5.656 40.4762 5.58133 40.3176 5.432C40.1589 5.28267 40.0796 5.08667 40.0796 4.844C40.0796 4.60133 40.1589 4.41 40.3176 4.27C40.4762 4.12067 40.6909 4.046 40.9616 4.046C41.2229 4.046 41.4329 4.12067 41.5916 4.27C41.7596 4.41 41.8436 4.60133 41.8436 4.844C41.8436 5.08667 41.7642 5.28267 41.6056 5.432C41.4469 5.58133 41.2322 5.656 40.9616 5.656ZM49.2242 4.06C49.4389 4.06 49.6115 4.12067 49.7422 4.242C49.8729 4.36333 49.9382 4.52667 49.9382 4.732V13.384C49.9382 13.5987 49.8729 13.7667 49.7422 13.888C49.6209 14.0093 49.4529 14.07 49.2382 14.07C49.0235 14.07 48.8509 14.0093 48.7202 13.888C48.5989 13.7667 48.5382 13.5987 48.5382 13.384V12.824C48.3329 13.2347 48.0342 13.552 47.6422 13.776C47.2502 13.9907 46.7975 14.098 46.2842 14.098C45.6962 14.098 45.1689 13.9487 44.7022 13.65C44.2449 13.3513 43.8855 12.9313 43.6242 12.39C43.3722 11.8487 43.2462 11.228 43.2462 10.528C43.2462 9.81867 43.3722 9.198 43.6242 8.666C43.8855 8.134 44.2449 7.72333 44.7022 7.434C45.1595 7.14467 45.6869 7 46.2842 7C46.7975 7 47.2455 7.112 47.6282 7.336C48.0202 7.55067 48.3189 7.85867 48.5242 8.26V4.704C48.5242 4.508 48.5849 4.354 48.7062 4.242C48.8369 4.12067 49.0095 4.06 49.2242 4.06ZM46.6202 12.978C47.2269 12.978 47.6982 12.768 48.0342 12.348C48.3702 11.928 48.5382 11.3307 48.5382 10.556C48.5382 9.78133 48.3702 9.184 48.0342 8.764C47.7075 8.344 47.2362 8.134 46.6202 8.134C46.0042 8.134 45.5235 8.344 45.1782 8.764C44.8422 9.17467 44.6742 9.76267 44.6742 10.528C44.6742 11.2933 44.8469 11.8953 45.1922 12.334C45.5375 12.7633 46.0135 12.978 46.6202 12.978ZM54.7797 7C55.685 7 56.357 7.22867 56.7957 7.686C57.2437 8.14333 57.4677 8.83867 57.4677 9.772V13.398C57.4677 13.6127 57.407 13.7807 57.2857 13.902C57.1644 14.014 56.9964 14.07 56.7817 14.07C56.5764 14.07 56.413 14.0093 56.2917 13.888C56.1704 13.7667 56.1097 13.6033 56.1097 13.398V12.88C55.9324 13.272 55.6664 13.5753 55.3117 13.79C54.9664 13.9953 54.5604 14.098 54.0937 14.098C53.6457 14.098 53.235 14.0093 52.8617 13.832C52.4977 13.6453 52.2084 13.3933 51.9937 13.076C51.779 12.7587 51.6717 12.3993 51.6717 11.998C51.6624 11.494 51.7884 11.102 52.0497 10.822C52.311 10.5327 52.7357 10.3273 53.3237 10.206C53.9117 10.0753 54.7284 10.01 55.7737 10.01H56.0957V9.604C56.0957 9.08133 55.9884 8.70333 55.7737 8.47C55.559 8.23667 55.2137 8.12 54.7377 8.12C54.411 8.12 54.103 8.162 53.8137 8.246C53.5244 8.33 53.207 8.45133 52.8617 8.61C52.6097 8.75 52.4324 8.82 52.3297 8.82C52.1897 8.82 52.073 8.76867 51.9797 8.666C51.8957 8.56333 51.8537 8.43267 51.8537 8.274C51.8537 8.134 51.891 8.01267 51.9657 7.91C52.0497 7.798 52.1804 7.69067 52.3577 7.588C52.6844 7.41067 53.067 7.27067 53.5057 7.168C53.9444 7.056 54.369 7 54.7797 7ZM54.3457 13.048C54.859 13.048 55.279 12.8753 55.6057 12.53C55.9324 12.1753 56.0957 11.7227 56.0957 11.172V10.808H55.8437C55.1157 10.808 54.5557 10.8407 54.1637 10.906C53.7717 10.9713 53.4917 11.0833 53.3237 11.242C53.1557 11.3913 53.0717 11.6107 53.0717 11.9C53.0717 12.236 53.193 12.5113 53.4357 12.726C53.6784 12.9407 53.9817 13.048 54.3457 13.048Z" fill="#971D1D"/>
</svg>
