<svg width="49" height="19" viewBox="0 0 49 19" fill="none" xmlns="http://www.w3.org/2000/svg">
<rect width="49" height="19" rx="8" fill="#EEF6F6"/>
<path d="M9.862 14.07C9.64733 14.07 9.47467 14.0047 9.344 13.874C9.21333 13.7433 9.148 13.566 9.148 13.342V4.83C9.148 4.61533 9.20867 4.44733 9.33 4.326C9.46067 4.19533 9.638 4.13 9.862 4.13H13.236C14.2813 4.13 15.0933 4.38667 15.672 4.9C16.2507 5.41333 16.54 6.14133 16.54 7.084C16.54 8.01733 16.2507 8.74533 15.672 9.268C15.0933 9.79067 14.2813 10.052 13.236 10.052H10.59V13.342C10.59 13.566 10.5247 13.7433 10.394 13.874C10.2727 14.0047 10.0953 14.07 9.862 14.07ZM13.082 8.89C14.4633 8.89 15.154 8.288 15.154 7.084C15.154 5.88933 14.4633 5.292 13.082 5.292H10.59V8.89H13.082ZM20.8188 7C21.7241 7 22.3961 7.22867 22.8348 7.686C23.2828 8.14333 23.5068 8.83867 23.5068 9.772V13.398C23.5068 13.6127 23.4461 13.7807 23.3248 13.902C23.2034 14.014 23.0354 14.07 22.8208 14.07C22.6154 14.07 22.4521 14.0093 22.3308 13.888C22.2094 13.7667 22.1488 13.6033 22.1488 13.398V12.88C21.9714 13.272 21.7054 13.5753 21.3508 13.79C21.0054 13.9953 20.5994 14.098 20.1328 14.098C19.6848 14.098 19.2741 14.0093 18.9008 13.832C18.5368 13.6453 18.2474 13.3933 18.0328 13.076C17.8181 12.7587 17.7108 12.3993 17.7108 11.998C17.7014 11.494 17.8274 11.102 18.0888 10.822C18.3501 10.5327 18.7748 10.3273 19.3628 10.206C19.9508 10.0753 20.7674 10.01 21.8128 10.01H22.1348V9.604C22.1348 9.08133 22.0274 8.70333 21.8128 8.47C21.5981 8.23667 21.2528 8.12 20.7768 8.12C20.4501 8.12 20.1421 8.162 19.8528 8.246C19.5634 8.33 19.2461 8.45133 18.9008 8.61C18.6488 8.75 18.4714 8.82 18.3688 8.82C18.2288 8.82 18.1121 8.76867 18.0188 8.666C17.9348 8.56333 17.8927 8.43267 17.8927 8.274C17.8927 8.134 17.9301 8.01267 18.0048 7.91C18.0888 7.798 18.2194 7.69067 18.3968 7.588C18.7234 7.41067 19.1061 7.27067 19.5448 7.168C19.9834 7.056 20.4081 7 20.8188 7ZM20.3848 13.048C20.8981 13.048 21.3181 12.8753 21.6448 12.53C21.9714 12.1753 22.1348 11.7227 22.1348 11.172V10.808H21.8828C21.1548 10.808 20.5948 10.8407 20.2028 10.906C19.8108 10.9713 19.5308 11.0833 19.3628 11.242C19.1948 11.3913 19.1108 11.6107 19.1108 11.9C19.1108 12.236 19.2321 12.5113 19.4748 12.726C19.7174 12.9407 20.0208 13.048 20.3848 13.048ZM31.0969 7.028C31.3116 7.028 31.4796 7.09333 31.6009 7.224C31.7316 7.34533 31.7969 7.50867 31.7969 7.714V13.454C31.7969 14.4993 31.5169 15.288 30.9569 15.82C30.4063 16.352 29.5896 16.618 28.5069 16.618C27.4989 16.618 26.6589 16.4267 25.9869 16.044C25.6416 15.848 25.4689 15.6147 25.4689 15.344C25.4689 15.1853 25.5109 15.0547 25.5949 14.952C25.6883 14.8493 25.8003 14.798 25.9309 14.798C26.0523 14.798 26.2436 14.868 26.5049 15.008C26.8409 15.1667 27.1536 15.288 27.4429 15.372C27.7323 15.4653 28.0776 15.512 28.4789 15.512C29.7669 15.512 30.4109 14.8633 30.4109 13.566V12.488C30.2149 12.8987 29.9163 13.2207 29.5149 13.454C29.1136 13.678 28.6469 13.79 28.1149 13.79C27.5176 13.79 26.9856 13.65 26.5189 13.37C26.0523 13.09 25.6883 12.6933 25.4269 12.18C25.1749 11.6667 25.0489 11.074 25.0489 10.402C25.0489 9.73 25.1796 9.13733 25.4409 8.624C25.7023 8.11067 26.0616 7.714 26.5189 7.434C26.9856 7.14467 27.5176 7 28.1149 7C28.6376 7 29.0949 7.112 29.4869 7.336C29.8883 7.56 30.1916 7.87733 30.3969 8.288V7.7C30.3969 7.49467 30.4576 7.33133 30.5789 7.21C30.7096 7.08867 30.8823 7.028 31.0969 7.028ZM28.4509 12.67C29.0576 12.67 29.5336 12.4693 29.8789 12.068C30.2243 11.6667 30.3969 11.1113 30.3969 10.402C30.3969 9.702 30.2243 9.15133 29.8789 8.75C29.5429 8.33933 29.0669 8.134 28.4509 8.134C27.8349 8.134 27.3496 8.33467 26.9949 8.736C26.6496 9.13733 26.4769 9.69267 26.4769 10.402C26.4769 11.1113 26.6543 11.6667 27.0089 12.068C27.3636 12.4693 27.8443 12.67 28.4509 12.67ZM36.6371 7C37.5424 7 38.2144 7.22867 38.6531 7.686C39.1011 8.14333 39.3251 8.83867 39.3251 9.772V13.398C39.3251 13.6127 39.2644 13.7807 39.1431 13.902C39.0218 14.014 38.8538 14.07 38.6391 14.07C38.4338 14.07 38.2704 14.0093 38.1491 13.888C38.0278 13.7667 37.9671 13.6033 37.9671 13.398V12.88C37.7898 13.272 37.5238 13.5753 37.1691 13.79C36.8238 13.9953 36.4178 14.098 35.9511 14.098C35.5031 14.098 35.0924 14.0093 34.7191 13.832C34.3551 13.6453 34.0658 13.3933 33.8511 13.076C33.6364 12.7587 33.5291 12.3993 33.5291 11.998C33.5198 11.494 33.6458 11.102 33.9071 10.822C34.1684 10.5327 34.5931 10.3273 35.1811 10.206C35.7691 10.0753 36.5858 10.01 37.6311 10.01H37.9531V9.604C37.9531 9.08133 37.8458 8.70333 37.6311 8.47C37.4164 8.23667 37.0711 8.12 36.5951 8.12C36.2684 8.12 35.9604 8.162 35.6711 8.246C35.3818 8.33 35.0644 8.45133 34.7191 8.61C34.4671 8.75 34.2898 8.82 34.1871 8.82C34.0471 8.82 33.9304 8.76867 33.8371 8.666C33.7531 8.56333 33.7111 8.43267 33.7111 8.274C33.7111 8.134 33.7484 8.01267 33.8231 7.91C33.9071 7.798 34.0378 7.69067 34.2151 7.588C34.5418 7.41067 34.9244 7.27067 35.3631 7.168C35.8018 7.056 36.2264 7 36.6371 7ZM36.2031 13.048C36.7164 13.048 37.1364 12.8753 37.4631 12.53C37.7898 12.1753 37.9531 11.7227 37.9531 11.172V10.808H37.7011C36.9731 10.808 36.4131 10.8407 36.0211 10.906C35.6291 10.9713 35.3491 11.0833 35.1811 11.242C35.0131 11.3913 34.9291 11.6107 34.9291 11.9C34.9291 12.236 35.0504 12.5113 35.2931 12.726C35.5358 12.9407 35.8391 13.048 36.2031 13.048Z" fill="#1FA7AF"/>
</svg>
